<?xml version="1.0" encoding="utf-8"?>
<!-- Generator: Adobe Illustrator 27.8.0, SVG Export Plug-In . SVG Version: 6.00 Build 0)  -->
<svg version="1.1" id="Layer_1" xmlns="http://www.w3.org/2000/svg" xmlns:xlink="http://www.w3.org/1999/xlink" x="0px" y="0px"
	 viewBox="0 0 304.9 190.5" style="enable-background:new 0 0 304.9 190.5;" xml:space="preserve">
<style type="text/css">
	.st0{display:none;fill:none;stroke:#000000;stroke-width:1.9924;stroke-miterlimit:2.6131;}
	.st1{fill:#FFFFFF;}
</style>
<polygon class="st0" points="47.4,55.8 47.4,156.8 69.2,156.8 69.2,56 93.4,56 93.4,156.8 162.7,156.8 162.7,57 187.3,57 
	187.3,156.6 210.1,156.6 210.1,57 235.1,57 235.1,156.6 257.9,156.6 257.9,33.9 140.7,33.9 140.7,134.4 115.6,134.4 115.6,34.1 
	26.7,34.1 26.7,55.8 "/>
<g>
	<path class="st1" d="M122.3,33.7v103h26.6v-103h123V160h-23.3V57H222v103h-23.3V57h-26.6v103H99V57H75.8v103H52.5V57H29.2V33.7
		H122.3z"/>
</g>
</svg>
