<?xml version="1.0" encoding="utf-8"?>
<!-- Generator: Adobe Illustrator 27.8.0, SVG Export Plug-In . SVG Version: 6.00 Build 0)  -->
<svg version="1.1" id="a" xmlns="http://www.w3.org/2000/svg" xmlns:xlink="http://www.w3.org/1999/xlink" x="0px" y="0px"
	 viewBox="0 0 418.5 182.6" style="enable-background:new 0 0 418.5 182.6;" xml:space="preserve">
<style type="text/css">
	.st0{fill:#FFFFFF;}
	.st1{opacity:0.7;fill:#FFFFFF;enable-background:new    ;}
	.st2{opacity:0.4;fill:#FFFFFF;enable-background:new    ;}
</style>
<g id="b">
</g>
<g id="c">
	<g>
		<path class="st0" d="M197.7,132.4l-2.3,8.3h-7.5l9.8-32.4h9.6l10.1,32.4h-7.9l-2.5-8.3H197.7L197.7,132.4z M205.9,127l-2-6.9
			c-0.6-1.9-1.2-4.3-1.6-6.2h-0.1c-0.5,1.9-1,4.4-1.5,6.2l-1.9,6.9H205.9z"/>
		<path class="st0" d="M235.9,140.1c-1.3,0.6-3.7,1.1-6.5,1.1c-7.6,0-12.4-4.7-12.4-12c0-6.9,4.7-12.5,13.4-12.5
			c1.9,0,4,0.3,5.6,0.9l-1.2,5.4c-0.9-0.4-2.2-0.7-4.1-0.7c-3.8,0-6.3,2.7-6.3,6.6c0,4.3,2.9,6.6,6.4,6.6c1.7,0,3.1-0.3,4.2-0.8
			L235.9,140.1L235.9,140.1z"/>
		<path class="st0" d="M257.3,135.1c0,2.2,0.1,4.4,0.4,5.7h-6.6l-0.4-2.4h-0.1c-1.5,1.9-3.9,2.9-6.7,2.9c-4.8,0-7.6-3.5-7.6-7.2
			c0-6.1,5.5-9,13.8-9v-0.3c0-1.3-0.7-3.1-4.3-3.1c-2.4,0-4.9,0.8-6.5,1.8l-1.3-4.7c1.6-0.9,4.8-2.1,9.1-2.1
			c7.8,0,10.3,4.6,10.3,10.2L257.3,135.1L257.3,135.1z M250.2,129.7c-3.8,0-6.8,0.9-6.8,3.7c0,1.9,1.2,2.8,2.9,2.8
			c1.8,0,3.3-1.2,3.8-2.7c0.1-0.4,0.1-0.8,0.1-1.2L250.2,129.7L250.2,129.7z"/>
		<path class="st0" d="M283.4,106.7v27.1c0,2.6,0.1,5.4,0.2,7h-6.5l-0.3-3.4h-0.1c-1.4,2.6-4.3,3.9-7.3,3.9c-5.6,0-10-4.8-10-12
			c0-7.9,4.9-12.5,10.5-12.5c2.9,0,5.1,1.1,6.2,2.6h0.1v-12.7L283.4,106.7L283.4,106.7z M276.1,127.2c0-0.4,0-0.9-0.1-1.3
			c-0.4-1.9-2-3.6-4.3-3.6c-3.4,0-5,3-5,6.7c0,4,2,6.5,5,6.5c2.1,0,3.8-1.4,4.3-3.5c0.1-0.5,0.1-1.1,0.1-1.7V127.2L276.1,127.2z"/>
		<path class="st0" d="M292.5,131.3c0.2,3,3.2,4.5,6.6,4.5c2.5,0,4.5-0.3,6.5-1l1,4.9c-2.4,1-5.3,1.5-8.5,1.5c-8,0-12.5-4.6-12.5-12
			c0-6,3.7-12.5,11.9-12.5c7.6,0,10.5,5.9,10.5,11.7c0,1.2-0.1,2.4-0.2,2.9L292.5,131.3L292.5,131.3z M301.1,126.3
			c0-1.8-0.8-4.8-4.1-4.8c-3.1,0-4.3,2.8-4.5,4.8H301.1z"/>
		<path class="st0" d="M309.8,124.8c0-2.9-0.1-5.4-0.2-7.5h6.2l0.3,3.2h0.1c1-1.5,3.1-3.7,7.1-3.7c3.1,0,5.4,1.6,6.4,4h0.1
			c0.9-1.2,1.9-2.2,3.1-2.9c1.3-0.7,2.7-1.2,4.5-1.2c4.5,0,7.9,3.2,7.9,10.2v13.8h-7.1V128c0-3.4-1.1-5.4-3.5-5.4
			c-1.7,0-2.9,1.2-3.4,2.5c-0.1,0.5-0.2,1.2-0.2,1.9v13.7H324v-13.2c0-2.9-1.1-4.9-3.4-4.9c-1.9,0-3,1.4-3.4,2.6
			c-0.2,0.6-0.3,1.2-0.3,1.9v13.7h-7.1L309.8,124.8L309.8,124.8z"/>
		<path class="st0" d="M353.3,117.3l3.5,11.6c0.4,1.3,0.9,3.1,1.2,4.4h0.2c0.3-1.3,0.7-3,1-4.4l2.9-11.5h7.8l-5.5,15.5
			c-3.4,9.4-5.6,13.1-8.3,15.4c-2.5,2.2-5.2,3-7,3.2l-1.6-6.1c0.9-0.2,2.1-0.6,3.2-1.2c1.1-0.6,2.4-1.8,3-2.9
			c0.2-0.4,0.4-0.8,0.4-1.1s0-0.6-0.3-1.2l-8.6-21.5C345.2,117.3,353.3,117.3,353.3,117.3z"/>
	</g>
	<g>
		<path class="st0" d="M208.5,85.8h-12.2v9.5h13.6v4.8h-19.5V67.8h18.8v4.8h-12.9V81h12.2V85.8L208.5,85.8z"/>
		<path class="st0" d="M212.4,83.7c0-2.7,0-4.9-0.2-7h5.2l0.3,3.5h0.1c1-1.8,3.6-4,7.4-4c4.1,0,8.3,2.6,8.3,10v13.9h-5.9V86.9
			c0-3.4-1.2-5.9-4.5-5.9c-2.4,0-4,1.7-4.6,3.5c-0.2,0.5-0.2,1.2-0.2,1.9v13.7h-6V83.7L212.4,83.7z"/>
		<path class="st0" d="M258.9,76.7c-0.1,1.6-0.2,3.5-0.2,6.7v13.2c0,4.9-1,8.4-3.5,10.6c-2.4,2.2-5.8,2.8-9,2.8
			c-3,0-6.1-0.6-8.2-1.9l1.3-4.5c1.5,0.9,4,1.8,6.8,1.8c3.8,0,6.7-2,6.7-7.1v-2h-0.1c-1.3,2.1-3.7,3.5-6.8,3.5
			c-5.8,0-9.9-4.8-9.9-11.4c0-7.7,5-12.3,10.6-12.3c3.6,0,5.7,1.7,6.8,3.6h0.1l0.2-3.1H258.9z M252.8,86.1c0-0.5,0-1.1-0.2-1.6
			c-0.6-2.2-2.3-3.8-4.8-3.8c-3.3,0-5.8,2.9-5.8,7.6c0,4,2,7.2,5.7,7.2c2.2,0,4.1-1.4,4.8-3.6c0.1-0.6,0.2-1.4,0.2-2.1L252.8,86.1
			L252.8,86.1z"/>
		<path class="st0" d="M268.7,70.2c0,1.8-1.3,3.2-3.4,3.2c-2,0-3.3-1.4-3.3-3.2c0-1.8,1.3-3.2,3.3-3.2
			C267.4,67,268.7,68.4,268.7,70.2z M262.4,100.1V76.7h6v23.4H262.4z"/>
		<path class="st0" d="M272.3,83.7c0-2.7,0-4.9-0.2-7h5.2l0.3,3.5h0.1c1-1.8,3.6-4,7.4-4c4.1,0,8.3,2.6,8.3,10v13.9h-5.9V86.9
			c0-3.4-1.2-5.9-4.5-5.9c-2.4,0-4,1.7-4.6,3.5c-0.2,0.5-0.2,1.2-0.2,1.9v13.7h-6V83.7L272.3,83.7z"/>
		<path class="st0" d="M301.5,90.1c0.1,4.2,3.5,6,7.2,6c2.7,0,4.7-0.4,6.5-1.1l0.9,4.1c-2,0.8-4.8,1.4-8.2,1.4
			c-7.6,0-12-4.7-12-11.8c0-6.5,3.9-12.6,11.4-12.6c7.6,0,10.1,6.2,10.1,11.4c0,1.1-0.1,2-0.2,2.5H301.5L301.5,90.1z M311.8,86
			c0-2.2-0.9-5.7-4.8-5.7c-3.6,0-5.2,3.3-5.4,5.7H311.8z"/>
		<path class="st0" d="M323.9,90.1c0.1,4.2,3.5,6,7.2,6c2.7,0,4.7-0.4,6.5-1.1l0.9,4.1c-2,0.8-4.8,1.4-8.2,1.4
			c-7.6,0-12-4.7-12-11.8c0-6.5,3.9-12.6,11.4-12.6c7.6,0,10.1,6.2,10.1,11.4c0,1.1-0.1,2-0.2,2.5H323.9L323.9,90.1z M334.2,86
			c0-2.2-0.9-5.7-4.8-5.7c-3.6,0-5.2,3.3-5.4,5.7H334.2z"/>
		<path class="st0" d="M342.1,84.3c0-3.2,0-5.4-0.2-7.5h5.1l0.2,4.5h0.2c1.2-3.3,3.9-5,6.4-5c0.6,0,0.9,0,1.4,0.1v5.6
			c-0.5-0.1-1-0.2-1.7-0.2c-2.8,0-4.8,1.8-5.3,4.5c-0.1,0.5-0.2,1.2-0.2,1.8v12.1h-5.9L342.1,84.3L342.1,84.3z"/>
		<path class="st0" d="M363.1,70.2c0,1.8-1.3,3.2-3.4,3.2c-2,0-3.3-1.4-3.3-3.2c0-1.8,1.3-3.2,3.3-3.2C361.8,67,363,68.4,363.1,70.2
			z M356.8,100.1V76.7h6v23.4H356.8z"/>
		<path class="st0" d="M366.7,83.7c0-2.7,0-4.9-0.2-7h5.2l0.3,3.5h0.1c1-1.8,3.6-4,7.4-4c4.1,0,8.3,2.6,8.3,10v13.9h-5.9V86.9
			c0-3.4-1.2-5.9-4.5-5.9c-2.4,0-4,1.7-4.6,3.5c-0.2,0.5-0.2,1.2-0.2,1.9v13.7h-6V83.7L366.7,83.7z"/>
		<path class="st0" d="M413.1,76.7c-0.1,1.6-0.2,3.5-0.2,6.7v13.2c0,4.9-1,8.4-3.5,10.6c-2.4,2.2-5.8,2.8-9,2.8
			c-3,0-6.1-0.6-8.2-1.9l1.3-4.5c1.5,0.9,4,1.8,6.8,1.8c3.8,0,6.7-2,6.7-7.1v-2H407c-1.3,2.1-3.7,3.5-6.8,3.5
			c-5.8,0-9.9-4.8-9.9-11.4c0-7.7,5-12.3,10.6-12.3c3.6,0,5.7,1.7,6.8,3.6h0.1l0.2-3.1H413.1L413.1,76.7z M407,86.1
			c0-0.5,0-1.1-0.2-1.6c-0.6-2.2-2.3-3.8-4.8-3.8c-3.3,0-5.8,2.9-5.8,7.6c0,4,2,7.2,5.7,7.2c2.2,0,4.1-1.4,4.8-3.6
			c0.1-0.6,0.2-1.4,0.2-2.1L407,86.1L407,86.1z"/>
	</g>
	<g>
		<path class="st0" d="M190.2,53.2c1.9,1.1,4.8,2.1,7.8,2.1c3.8,0,5.9-1.8,5.9-4.4c0-2.4-1.6-3.9-5.8-5.4c-5.3-1.9-8.7-4.8-8.7-9.4
			c0-5.3,4.4-9.3,11.4-9.3c3.5,0,6.1,0.8,7.8,1.6l-1.4,4.8c-1.2-0.6-3.4-1.5-6.4-1.5c-3.7,0-5.4,2-5.4,3.9c0,2.5,1.9,3.6,6.2,5.3
			c5.6,2.1,8.4,4.9,8.4,9.6c0,5.2-3.9,9.7-12.3,9.7c-3.4,0-7-1-8.7-2L190.2,53.2L190.2,53.2z"/>
		<path class="st0" d="M235.1,47.8c0,8.6-6,12.4-12,12.4c-6.6,0-11.7-4.6-11.7-12c0-7.7,5-12.4,12.1-12.4
			C230.5,35.8,235.1,40.7,235.1,47.8z M217.5,48c0,4.5,2.2,7.9,5.8,7.9c3.4,0,5.7-3.3,5.7-8c0-3.6-1.6-7.8-5.7-7.8
			C219.2,40.1,217.5,44.1,217.5,48L217.5,48z"/>
		<path class="st0" d="M238.3,59.7v-19h-3.2v-4.4h3.2v-1c0-3,0.8-6,2.8-8c1.7-1.6,4.1-2.3,6.1-2.3c1.6,0,2.8,0.2,3.8,0.6l-0.4,4.6
			c-0.6-0.2-1.4-0.4-2.5-0.4c-2.9,0-3.9,2.4-3.9,5.3v1.2h5.1v4.4h-5.1v19L238.3,59.7L238.3,59.7z"/>
		<path class="st0" d="M257.9,29.6v6.7h5.6v4.4h-5.6V51c0,2.8,0.8,4.3,3,4.3c1,0,1.8-0.1,2.3-0.3l0.1,4.5c-0.9,0.3-2.4,0.6-4.3,0.6
			c-2.2,0-4-0.7-5.1-1.9c-1.2-1.3-1.8-3.5-1.8-6.5v-11h-3.4v-4.4h3.4V31L257.9,29.6z"/>
		<path class="st0" d="M269.5,36.3l2.4,10.6c0.5,2.5,1.1,5,1.5,7.6h0.1c0.5-2.5,1.2-5.1,1.9-7.5l3-10.7h4.8l2.9,10.4
			c0.7,2.7,1.3,5.3,1.9,7.8h0.1c0.4-2.5,0.9-5.1,1.5-7.8l2.6-10.4h5.8l-7.3,23.4h-5.5l-2.8-9.5c-0.7-2.4-1.2-4.7-1.8-7.5h-0.1
			c-0.5,2.9-1.1,5.2-1.8,7.5l-3,9.5h-5.5l-6.9-23.4L269.5,36.3L269.5,36.3z"/>
		<path class="st0" d="M312.3,59.7l-0.4-2.6h-0.1c-1.4,1.8-3.9,3.1-6.9,3.1c-4.7,0-7.3-3.4-7.3-7c0-5.9,5.2-8.9,13.9-8.8V44
			c0-1.5-0.6-4.1-4.8-4.1c-2.3,0-4.7,0.7-6.3,1.7l-1.2-3.8c1.7-1.1,4.8-2.1,8.4-2.1c7.5,0,9.6,4.8,9.6,9.8v8.4
			c0,2.1,0.1,4.2,0.3,5.6L312.3,59.7L312.3,59.7z M311.6,48.3c-4.2-0.1-8.2,0.8-8.2,4.4c0,2.3,1.5,3.4,3.4,3.4
			c2.4,0,4.1-1.5,4.6-3.2c0.1-0.4,0.2-0.9,0.2-1.3L311.6,48.3L311.6,48.3z"/>
		<path class="st0" d="M321.2,43.8c0-3.2,0-5.4-0.2-7.5h5.1l0.2,4.5h0.2c1.2-3.3,3.9-5,6.4-5c0.6,0,0.9,0,1.4,0.1v5.6
			c-0.5-0.1-1-0.2-1.7-0.2c-2.8,0-4.8,1.8-5.3,4.5c-0.1,0.5-0.2,1.2-0.2,1.8v12.1h-5.9L321.2,43.8L321.2,43.8z"/>
		<path class="st0" d="M339.6,49.6c0.1,4.2,3.5,6,7.2,6c2.7,0,4.7-0.4,6.5-1.1l0.9,4.1c-2,0.8-4.8,1.4-8.2,1.4
			c-7.6,0-12-4.7-12-11.8c0-6.5,3.9-12.6,11.4-12.6c7.6,0,10.1,6.2,10.1,11.4c0,1.1-0.1,2-0.2,2.5H339.6L339.6,49.6z M349.9,45.5
			c0-2.2-0.9-5.7-4.8-5.7c-3.6,0-5.2,3.3-5.4,5.7H349.9z"/>
	</g>
</g>
<g id="d">
	<path id="e" class="st1" d="M105.7,109.7l54.2-45.5c3.4-2.9,1.4-8.4-3.1-8.4h-13.5L108,85.4c-2.2,1.8-5,2.9-7.9,2.9h-1l0,0H29.3
		L10.5,104c-3.4,2.9-1.4,8.4,3.1,8.4h84.5C100.9,112.4,103.6,111.5,105.7,109.7L105.7,109.7z"/>
	<path id="f" class="st2" d="M105.7,137.9l54.2-45.5c3.4-2.9,1.4-8.4-3.1-8.4h-13.5L108,113.6c-2.2,1.8-5,2.9-7.9,2.9h-1l0,0H29.3
		l-18.8,15.8c-3.4,2.9-1.4,8.4,3.1,8.4h84.5C100.9,140.7,103.6,139.7,105.7,137.9L105.7,137.9z"/>
	<path id="g" class="st0" d="M156.9,27.2H72.5c-2.9,0-5.7,1-7.9,2.9L10.5,75.5C7.1,78.4,9.1,84,13.6,84H98c2.9,0,5.7-1,7.9-2.9
		l54.1-45.4C163.4,32.8,161.3,27.2,156.9,27.2z"/>
</g>
</svg>
